<svg width="167" height="36" viewBox="0 0 167 36" fill="none" xmlns="http://www.w3.org/2000/svg">
<g clip-path="url(#clip0_8_2)">
<path d="M22.4609 35.9609H15.5348C14.9348 35.9609 14.3348 35.9087 13.7348 35.8044C5.36092 34.6305 -0.626036 25.7087 0.391355 15.9261C1.33049 6.80872 8.02179 0.117412 15.6522 0.156543L22.6174 0.195673C14.9479 0.156543 8.2957 6.84785 7.35657 15.9261C6.33918 25.7478 12.3261 34.6696 20.7 35.8435C21.3 35.9218 21.887 35.9609 22.4609 35.9609Z" fill="#00D6A3"/>
<path d="M23.9087 0.313065C32.2826 1.48698 38.2696 10.4087 37.2522 20.2305C36.2348 30.0131 28.6044 37.0174 20.2304 35.8435C11.8565 34.6696 5.86957 25.7478 6.88696 15.9652C7.90435 6.1435 15.5348 -0.860848 23.9087 0.313065V0.313065Z" fill="url(#paint0_linear_8_2)"/>
<path fill-rule="evenodd" clip-rule="evenodd" d="M23.9087 0.31307C32.2826 1.48698 38.2696 10.4087 37.2522 20.1913C36.313 29.2696 29.7 35.9609 22.0696 35.9609C21.4696 35.9609 20.8565 35.9218 20.2304 35.8435C11.8565 34.6305 5.86957 25.7087 6.88696 15.9261C7.82609 6.84785 14.4783 0.195679 22.0696 0.195679C22.6957 0.195679 23.3087 0.234809 23.9087 0.31307V0.31307ZM22.0696 0.821766C14.6739 0.821766 8.41305 7.35655 7.51305 16.0044C6.53479 25.4739 12.2478 34.0826 20.3087 35.2174C20.8826 35.2957 21.4696 35.3348 22.0696 35.3348C29.4652 35.3348 35.7261 28.8 36.6261 20.1522C37.6044 10.6826 31.8522 2.07394 23.8304 0.939157C23.2565 0.860896 22.6696 0.821766 22.0696 0.821766V0.195679V0.821766Z" fill="url(#paint1_linear_8_2)"/>
<path d="M60.4174 10.1739C60.7565 10.513 60.9261 10.9435 60.9261 11.4652V24.613C60.9261 25.1609 60.7565 25.5913 60.4174 25.9043C60.1044 26.2435 59.687 26.413 59.1652 26.413C58.6174 26.413 58.1739 26.2174 57.8348 25.8261L49.9696 15.7696V24.613C49.9696 25.1609 49.8261 25.5913 49.5392 25.9043C49.2261 26.2435 48.8087 26.413 48.287 26.413C47.7913 26.413 47.387 26.2435 47.0739 25.9043C46.7609 25.5913 46.6044 25.1609 46.6044 24.613V11.4652C46.6044 10.9435 46.7609 10.513 47.0739 10.1739C47.387 9.83479 47.8044 9.66522 48.3261 9.66522C48.9 9.66522 49.3435 9.87392 49.6565 10.2913L57.4826 20.2304V11.4652C57.4826 10.9435 57.6392 10.513 57.9522 10.1739C58.2652 9.83479 58.6696 9.66522 59.1652 9.66522C59.687 9.66522 60.1044 9.83479 60.4174 10.1739V10.1739Z" fill="#494949"/>
<path fill-rule="evenodd" clip-rule="evenodd" d="M73.8783 23.2435C74.087 23.5044 74.1913 23.8174 74.1913 24.1826C74.1913 24.4696 74.1131 24.7174 73.9565 24.9261C73.8 25.1609 73.5783 25.3565 73.2913 25.513C72.7696 25.8 72.1565 26.0217 71.4522 26.1783C70.7478 26.3609 70.0957 26.4522 69.4957 26.4522C68.2435 26.4522 67.1609 26.2174 66.2478 25.7478C65.3087 25.2522 64.5913 24.5609 64.0957 23.6739C63.6 22.787 63.3522 21.7304 63.3522 20.5044C63.3522 19.3304 63.6 18.287 64.0957 17.3739C64.5652 16.487 65.2304 15.7826 66.0913 15.2609C66.9522 14.7652 67.9304 14.5174 69.0261 14.5174C70.0696 14.5174 70.9826 14.7522 71.7652 15.2217C72.5478 15.6652 73.1609 16.3174 73.6044 17.1783C74.0478 18.013 74.2696 19.0044 74.2696 20.1522C74.2696 20.4913 74.1783 20.7522 73.9957 20.9348C73.8391 21.1174 73.6174 21.2087 73.3304 21.2087H66.7565C66.887 22.1217 67.1739 22.787 67.6174 23.2044C68.0609 23.6217 68.7 23.8304 69.5348 23.8304C70.0044 23.8304 70.4087 23.7783 70.7478 23.6739C71.1131 23.5435 71.5174 23.387 71.9609 23.2044C72.1696 23.1261 72.3783 23.0478 72.587 22.9696C72.7957 22.8913 72.9783 22.8522 73.1348 22.8522C73.4478 22.8522 73.6957 22.9826 73.8783 23.2435V23.2435ZM67.5 17.5696C67.0826 18.013 66.8348 18.6391 66.7565 19.4478H71.2957C71.2435 18.613 71.0348 17.987 70.6696 17.5696C70.3044 17.1522 69.7826 16.9435 69.1044 16.9435C68.4261 16.9435 67.8913 17.1522 67.5 17.5696Z" fill="#494949"/>
<path d="M87.1435 24.8478C87.1435 25.2652 86.987 25.6304 86.6739 25.9435C86.3609 26.2826 85.9826 26.4522 85.5391 26.4522C85.1217 26.4522 84.7304 26.2565 84.3652 25.8652L81.3522 22.6174L78.3391 25.8652C77.9739 26.2565 77.5826 26.4522 77.1652 26.4522C76.7217 26.4522 76.3435 26.2826 76.0304 25.9435C75.6913 25.6304 75.5217 25.2522 75.5217 24.8087C75.5217 24.4174 75.7043 24.0391 76.0696 23.6739L79.2 20.3869L76.2652 17.3348C75.9261 16.9696 75.7565 16.5783 75.7565 16.1609C75.7565 15.7435 75.913 15.3783 76.2261 15.0652C76.5391 14.7522 76.9174 14.5956 77.3609 14.5956C77.7783 14.5956 78.1696 14.7783 78.5348 15.1435L81.3522 18.1174L84.1696 15.1435C84.5348 14.7783 84.9391 14.5956 85.3826 14.5956C85.8 14.5956 86.1652 14.7522 86.4783 15.0652C86.7913 15.3783 86.9478 15.7435 86.9478 16.1609C86.9478 16.5783 86.7783 16.9696 86.4391 17.3348L83.4652 20.3869L86.6348 23.6739C86.9739 24.0391 87.1435 24.4304 87.1435 24.8478V24.8478Z" fill="#494949"/>
<path d="M96.4173 24.1826C96.6521 24.3913 96.7695 24.6913 96.7695 25.0826C96.7695 25.5261 96.5869 25.8652 96.2217 26.1C95.8565 26.3348 95.3478 26.4391 94.6956 26.4131L94.0304 26.3348C91.2913 26.1261 89.9217 24.7044 89.9217 22.0696V17.4522H88.9826C88.4869 17.4522 88.0956 17.3348 87.8087 17.1C87.5478 16.8652 87.4174 16.5392 87.4174 16.1218C87.4174 15.6783 87.5478 15.3522 87.8087 15.1435C88.0956 14.9087 88.4869 14.7913 88.9826 14.7913H89.9217V12.9522C89.9217 12.4565 90.0913 12.0522 90.4304 11.7392C90.7434 11.4522 91.1739 11.3087 91.7217 11.3087C92.2695 11.3087 92.7 11.4522 93.013 11.7392C93.326 12.0522 93.4826 12.4565 93.4826 12.9522V14.7913H95.126C96.1695 14.7913 96.6913 15.2348 96.6913 16.1218C96.6913 16.5392 96.5608 16.8652 96.3 17.1C96.0391 17.3348 95.6478 17.4522 95.126 17.4522H93.4826V22.3435C93.4826 22.8131 93.5869 23.1652 93.7956 23.4C94.0304 23.6348 94.3565 23.7652 94.7739 23.7913L95.4 23.8305C95.8695 23.8826 96.2086 24 96.4173 24.1826V24.1826Z" fill="#494949"/>
<path fill-rule="evenodd" clip-rule="evenodd" d="M98.8434 25.9435C98.5043 25.6043 98.3347 25.1478 98.3347 24.5739V11.5043C98.3347 10.9565 98.4912 10.5261 98.8043 10.213C99.0912 9.92607 99.5086 9.78259 100.056 9.78259H105.926C107.726 9.78259 109.122 10.2391 110.113 11.1522C111.13 12.0391 111.639 13.2913 111.639 14.9087C111.639 16.5522 111.13 17.8174 110.113 18.7043C109.122 19.6174 107.726 20.0739 105.926 20.0739H102.013V24.5739C102.013 25.1478 101.843 25.6043 101.504 25.9435C101.191 26.2565 100.748 26.413 100.174 26.413C99.626 26.413 99.1825 26.2565 98.8434 25.9435V25.9435ZM105.456 17.3348C107.283 17.3348 108.196 16.5391 108.196 14.9478C108.196 13.3565 107.283 12.5609 105.456 12.5609H102.013V17.3348H105.456Z" fill="#494949"/>
<path d="M114.222 25.9826C113.883 25.7217 113.713 25.3174 113.713 24.7696V11.3087C113.713 10.787 113.883 10.3826 114.222 10.0957C114.535 9.8087 114.952 9.66522 115.474 9.66522C115.97 9.66522 116.387 9.8087 116.726 10.0957C117.065 10.3826 117.235 10.787 117.235 11.3087V24.7696C117.235 25.3174 117.065 25.7217 116.726 25.9826C116.387 26.2696 115.97 26.413 115.474 26.413C114.952 26.413 114.535 26.2696 114.222 25.9826Z" fill="#494949"/>
<path fill-rule="evenodd" clip-rule="evenodd" d="M128.857 15.7304C129.665 16.5652 130.07 17.8174 130.07 19.487V24.7696C130.07 25.2913 129.926 25.6957 129.639 25.9826C129.352 26.2696 128.935 26.413 128.387 26.413C127.891 26.413 127.487 26.2565 127.174 25.9435C126.887 25.6565 126.743 25.2652 126.743 24.7696V24.613C126.509 25.187 126.117 25.6435 125.57 25.9826C125.022 26.2957 124.383 26.4522 123.652 26.4522C122.87 26.4522 122.165 26.2957 121.539 25.9826C120.913 25.6696 120.404 25.2391 120.013 24.6913C119.648 24.1174 119.465 23.4913 119.465 22.813C119.465 21.9783 119.687 21.313 120.13 20.8174C120.548 20.3478 121.239 19.9957 122.204 19.7609C123.143 19.5522 124.435 19.4478 126.078 19.4478H126.704V19.0174C126.704 18.3652 126.561 17.8957 126.274 17.6087C125.987 17.2957 125.504 17.1391 124.826 17.1391C124.148 17.1391 123.183 17.3739 121.93 17.8435C121.565 18.0261 121.265 18.1174 121.03 18.1174C120.691 18.1174 120.417 17.987 120.209 17.7261C120 17.4913 119.896 17.1783 119.896 16.787C119.896 16.4739 119.961 16.2261 120.091 16.0435C120.248 15.8348 120.483 15.6391 120.796 15.4565C121.343 15.1696 122.009 14.9348 122.791 14.7522C123.574 14.5957 124.343 14.5174 125.1 14.5174C126.796 14.5174 128.048 14.9217 128.857 15.7304V15.7304ZM126.078 23.3609C126.496 22.8913 126.704 22.2913 126.704 21.5609V21.1696H126.313C125.061 21.1696 124.174 21.2609 123.652 21.4435C123.157 21.6522 122.909 22.0304 122.909 22.5783C122.909 22.9957 123.052 23.3478 123.339 23.6348C123.626 23.8957 123.991 24.0261 124.435 24.0261C125.113 24.0261 125.661 23.8044 126.078 23.3609V23.3609Z" fill="#494949"/>
<path d="M142.983 15.7304C143.661 16.513 144 17.7261 144 19.3696V24.7696C144 25.2652 143.844 25.6696 143.53 25.9826C143.217 26.2696 142.787 26.413 142.239 26.413C141.691 26.413 141.261 26.2696 140.948 25.9826C140.635 25.6696 140.478 25.2652 140.478 24.7696V19.5261C140.478 18.7435 140.335 18.1696 140.048 17.8044C139.761 17.4391 139.304 17.2565 138.678 17.2565C137.948 17.2565 137.361 17.4913 136.917 17.9609C136.474 18.4304 136.252 19.0565 136.252 19.8391V24.7696C136.252 25.2652 136.096 25.6696 135.783 25.9826C135.47 26.2696 135.039 26.413 134.491 26.413C133.944 26.413 133.513 26.2696 133.2 25.9826C132.887 25.6696 132.73 25.2652 132.73 24.7696V16.1609C132.73 15.6913 132.9 15.3 133.239 14.987C133.552 14.7 133.983 14.5565 134.53 14.5565C135 14.5565 135.391 14.7 135.704 14.987C136.017 15.2739 136.174 15.6391 136.174 16.0826V16.4348C136.565 15.8087 137.087 15.3261 137.739 14.987C138.391 14.6739 139.122 14.5174 139.93 14.5174C141.313 14.5174 142.33 14.9217 142.983 15.7304V15.7304Z" fill="#494949"/>
<path fill-rule="evenodd" clip-rule="evenodd" d="M156.639 23.2435C156.822 23.5044 156.913 23.8174 156.913 24.1826C156.913 24.4696 156.835 24.7174 156.678 24.9261C156.522 25.1609 156.3 25.3565 156.013 25.513C155.491 25.8 154.878 26.0217 154.174 26.1783C153.47 26.3609 152.83 26.4522 152.256 26.4522C151.004 26.4522 149.909 26.2174 148.97 25.7478C148.056 25.2522 147.352 24.5609 146.856 23.6739C146.335 22.787 146.074 21.7304 146.074 20.5044C146.1 19.3304 146.348 18.287 146.817 17.3739C147.287 16.487 147.952 15.7826 148.813 15.2609C149.674 14.7652 150.652 14.5174 151.748 14.5174C152.791 14.5174 153.704 14.7522 154.487 15.2217C155.296 15.6652 155.909 16.3174 156.326 17.1783C156.77 18.013 156.991 19.0044 156.991 20.1522C156.991 20.4913 156.913 20.7522 156.756 20.9348C156.574 21.1174 156.339 21.2087 156.052 21.2087H149.517C149.622 22.1217 149.896 22.787 150.339 23.2044C150.809 23.6217 151.461 23.8304 152.296 23.8304C152.739 23.8304 153.143 23.7783 153.509 23.6739C153.874 23.5435 154.265 23.387 154.683 23.2044C154.917 23.1261 155.126 23.0478 155.309 22.9696C155.517 22.8913 155.7 22.8522 155.856 22.8522C156.17 22.8522 156.43 22.9826 156.639 23.2435V23.2435ZM150.222 17.5696C149.83 18.013 149.596 18.6391 149.517 19.4478H154.017C153.965 18.613 153.756 17.987 153.391 17.5696C153.026 17.1522 152.504 16.9435 151.826 16.9435C151.174 16.9435 150.639 17.1522 150.222 17.5696V17.5696Z" fill="#494949"/>
<path d="M166.304 24.1826C166.513 24.3913 166.617 24.6913 166.617 25.0826C166.617 25.5261 166.448 25.8652 166.109 26.1C165.743 26.3348 165.222 26.4391 164.543 26.4131L163.878 26.3348C161.165 26.1261 159.809 24.7044 159.809 22.0696V17.4522H158.87C158.348 17.4522 157.956 17.3348 157.696 17.1C157.435 16.8652 157.304 16.5392 157.304 16.1218C157.304 15.6783 157.435 15.3522 157.696 15.1435C157.956 14.9087 158.348 14.7913 158.87 14.7913H159.809V12.9522C159.809 12.4565 159.965 12.0522 160.278 11.7392C160.591 11.4522 161.022 11.3087 161.57 11.3087C162.117 11.3087 162.548 11.4522 162.861 11.7392C163.174 12.0522 163.33 12.4565 163.33 12.9522V14.7913H164.974C166.043 14.7913 166.578 15.2348 166.578 16.1218C166.578 16.5392 166.448 16.8652 166.187 17.1C165.9 17.3348 165.496 17.4522 164.974 17.4522H163.33V22.3435C163.33 22.8131 163.448 23.1652 163.683 23.4C163.891 23.6348 164.204 23.7652 164.622 23.7913L165.287 23.8305C165.756 23.8826 166.096 24 166.304 24.1826V24.1826Z" fill="#494949"/>
</g>
<defs>
<linearGradient id="paint0_linear_8_2" x1="535.991" y1="1653.56" x2="2928.17" y2="1653.56" gradientUnits="userSpaceOnUse">
<stop stop-color="#85FFFF"/>
<stop offset="0.1" stop-color="#73F9F2"/>
<stop offset="0.3" stop-color="#4AEDD6"/>
<stop offset="0.5" stop-color="#2AE3C0"/>
<stop offset="0.7" stop-color="#13DCB0"/>
<stop offset="0.8" stop-color="#05D7A6"/>
<stop offset="1" stop-color="#00D6A3"/>
</linearGradient>
<linearGradient id="paint1_linear_8_2" x1="2928.17" y1="1652.55" x2="535.991" y2="1652.55" gradientUnits="userSpaceOnUse">
<stop stop-color="#FFDDD9" stop-opacity="0.8"/>
<stop offset="1" stop-color="#FFDDD9" stop-opacity="0"/>
</linearGradient>
<clipPath id="clip0_8_2">
<rect width="166.696" height="36" fill="white"/>
</clipPath>
</defs>
</svg>
